<svg width="14" height="16" viewBox="0 0 14 16" fill="none" xmlns="http://www.w3.org/2000/svg">
<path d="M7 16L2.05022 11.3137C1.07127 10.3868 0.404589 9.20592 0.1345 7.92033C-0.13559 6.63474 0.00303866 5.30219 0.532854 4.0912C1.06267 2.8802 1.95988 1.84514 3.11102 1.11692C4.26216 0.388689 5.61553 0 7 0C8.38447 0 9.73784 0.388689 10.889 1.11692C12.0401 1.84514 12.9373 2.8802 13.4671 4.0912C13.997 5.30219 14.1356 6.63474 13.8655 7.92033C13.5954 9.20592 12.9287 10.3868 11.9498 11.3137L7 16ZM10.85 10.2724C11.6114 9.55153 12.1298 8.63305 12.3399 7.63316C12.5499 6.63327 12.442 5.59687 12.03 4.65501C11.6179 3.71315 10.92 2.90813 10.0247 2.34175C9.12939 1.77538 8.07679 1.47307 7 1.47307C5.92321 1.47307 4.87061 1.77538 3.97529 2.34175C3.07997 2.90813 2.38214 3.71315 1.97004 4.65501C1.55795 5.59687 1.4501 6.63327 1.66013 7.63316C1.87016 8.63305 2.38864 9.55153 3.15 10.2724L7 13.9175L10.85 10.2724ZM7 8.10012C6.58744 8.10012 6.19178 7.94495 5.90006 7.66876C5.60833 7.39256 5.44445 7.01796 5.44445 6.62736C5.44445 6.23676 5.60833 5.86216 5.90006 5.58596C6.19178 5.30977 6.58744 5.1546 7 5.1546C7.41256 5.1546 7.80822 5.30977 8.09994 5.58596C8.39167 5.86216 8.55555 6.23676 8.55555 6.62736C8.55555 7.01796 8.39167 7.39256 8.09994 7.66876C7.80822 7.94495 7.41256 8.10012 7 8.10012Z" fill="#212121"/>
</svg>
