<svg width="12" height="15" viewBox="0 0 12 15" fill="none" xmlns="http://www.w3.org/2000/svg">
<path d="M10.2427 10.3995L6 14.5L1.75734 10.3995C0.918228 9.58846 0.346791 8.55518 0.115286 7.43029C-0.11622 6.3054 0.00260456 5.13942 0.456732 4.0798C0.91086 3.02017 1.67989 2.1145 2.66659 1.4773C3.65328 0.840103 4.81332 0.5 6 0.5C7.18668 0.5 8.34672 0.840103 9.33341 1.4773C10.3201 2.1145 11.0891 3.02017 11.5433 4.0798C11.9974 5.13942 12.1162 6.3054 11.8847 7.43029C11.6532 8.55518 11.0818 9.58846 10.2427 10.3995ZM6 7.5876C6.35362 7.5876 6.69276 7.45183 6.94281 7.21016C7.19286 6.96849 7.33333 6.64071 7.33333 6.29894C7.33333 5.95716 7.19286 5.62939 6.94281 5.38772C6.69276 5.14604 6.35362 5.01027 6 5.01027C5.64638 5.01027 5.30724 5.14604 5.05719 5.38772C4.80714 5.62939 4.66667 5.95716 4.66667 6.29894C4.66667 6.64071 4.80714 6.96849 5.05719 7.21016C5.30724 7.45183 5.64638 7.5876 6 7.5876Z" fill="#BF00FF"/>
</svg>
