<svg width="15" height="22" viewBox="0 0 15 22" fill="none" xmlns="http://www.w3.org/2000/svg">
<path d="M7.49968 22C5.99677 21.9999 4.52856 21.5378 3.28541 20.6736C2.04226 19.8094 1.08151 18.583 0.52773 17.1534C-0.0260488 15.7238 -0.147316 14.1569 0.179652 12.656C0.50662 11.155 1.26674 9.78916 2.36146 8.73553C3.70352 7.44316 6.99966 5.11628 6.49964 0C12.4999 4.09302 15.5 8.18605 9.49977 14.3256C10.4998 14.3256 11.9999 14.3256 14.5 11.7981C14.77 12.5891 15 13.4394 15 14.3256C15 16.361 14.2098 18.313 12.8032 19.7522C11.3966 21.1914 9.48889 22 7.49968 22Z" fill="white"/>
</svg>
