<svg width="21" height="20" viewBox="0 0 21 20" fill="none" xmlns="http://www.w3.org/2000/svg">
<path d="M16.2832 14.3911L20.5 18.6069L19.1069 20L14.8911 15.7832C13.3224 17.0407 11.3713 17.7246 9.36088 17.7218C4.46968 17.7218 0.5 13.7521 0.5 8.86088C0.5 3.96968 4.46968 0 9.36088 0C14.2521 0 18.2218 3.96968 18.2218 8.86088C18.2246 10.8713 17.5407 12.8224 16.2832 14.3911ZM14.3082 13.6605C15.5577 12.3756 16.2555 10.6532 16.2527 8.86088C16.2527 5.05267 13.1681 1.96909 9.36088 1.96909C5.55267 1.96909 2.46909 5.05267 2.46909 8.86088C2.46909 12.6681 5.55267 15.7527 9.36088 15.7527C11.1532 15.7555 12.8756 15.0577 14.1605 13.8082L14.3082 13.6605Z" fill="white"/>
</svg>
