<svg width="21" height="22" viewBox="0 0 21 22" fill="none" xmlns="http://www.w3.org/2000/svg">
<path d="M4.94444 1.60526V9.34211L10.5 6.57895L16.0556 9.34211V1.60526H19.3889C19.6836 1.60526 19.9662 1.72171 20.1746 1.92899C20.3829 2.13626 20.5 2.41739 20.5 2.71053V20.3947C20.5 20.6879 20.3829 20.969 20.1746 21.1763C19.9662 21.3836 19.6836 21.5 19.3889 21.5H1.61111C1.31643 21.5 1.03381 21.3836 0.825437 21.1763C0.617063 20.969 0.5 20.6879 0.5 20.3947V2.71053C0.5 2.41739 0.617063 2.13626 0.825437 1.92899C1.03381 1.72171 1.31643 1.60526 1.61111 1.60526H4.94444ZM10.5 6.02632L5.5 0.5H15.5L10.5 6.02632ZM11.6111 9.60295L10.5 9.05032L9.38889 9.60295V19.2895H11.6111V9.60295ZM13.8333 12.6579V14.8684H18.2778V12.6579H13.8333Z" fill="white"/>
</svg>
