<svg width="23" height="20" viewBox="0 0 23 20" fill="none" xmlns="http://www.w3.org/2000/svg">
<path d="M21.4979 18V20H1.4999V18H2.4998V11.242C1.88423 10.8311 1.37962 10.2745 1.03077 9.62176C0.681908 8.96899 0.499592 8.24017 0.500001 7.5C0.500001 6.673 0.723978 5.876 1.13294 5.197L3.84466 0.5C3.93242 0.347985 4.05864 0.221749 4.21064 0.133981C4.36264 0.0462129 4.53506 4.45922e-06 4.71057 0H18.2882C18.4637 4.45922e-06 18.6361 0.0462129 18.7881 0.133981C18.9401 0.221749 19.0664 0.347985 19.1541 0.5L21.8558 5.182C22.4523 6.17287 22.6441 7.35553 22.3912 8.48414C22.1383 9.61275 21.4602 10.6005 20.498 11.242V18H21.4979ZM5.28852 2L2.85576 6.213C2.61936 6.79714 2.61227 7.44903 2.8359 8.03818C3.05952 8.62733 3.49738 9.11029 4.06182 9.39039C4.62627 9.6705 5.27566 9.72708 5.88004 9.54882C6.48441 9.37055 6.99918 8.9706 7.32131 8.429C7.65628 7.592 8.84116 7.592 9.17712 8.429C9.3624 8.89342 9.68267 9.2916 10.0966 9.5721C10.5104 9.85261 10.9989 10.0025 11.4989 10.0025C11.9989 10.0025 12.4873 9.85261 12.9012 9.5721C13.3151 9.2916 13.6354 8.89342 13.8207 8.429C14.1556 7.592 15.3405 7.592 15.6765 8.429C15.8062 8.74845 16.0007 9.0376 16.2475 9.27828C16.4944 9.51895 16.7884 9.70595 17.111 9.82752C17.4337 9.94909 17.778 10.0026 18.1223 9.98468C18.4666 9.96677 18.8034 9.87782 19.1117 9.72343C19.42 9.56903 19.693 9.35253 19.9136 9.08753C20.1342 8.82253 20.2975 8.51477 20.3935 8.18357C20.4894 7.85238 20.5157 7.50493 20.4709 7.16305C20.4261 6.82118 20.3111 6.49227 20.133 6.197L17.7083 2H5.28952H5.28852Z" fill="white"/>
</svg>
